<?xml version="1.0" encoding="utf-8"?>
<!-- Generator: Adobe Illustrator 27.0.0, SVG Export Plug-In . SVG Version: 6.00 Build 0)  -->
<svg version="1.1" id="Layer_1" xmlns="http://www.w3.org/2000/svg" xmlns:xlink="http://www.w3.org/1999/xlink" x="0px" y="0px"
	 viewBox="0 0 300 300" style="enable-background:new 0 0 300 300;" xml:space="preserve">
<style type="text/css">
	.st0{fill:#FFFFFF;}
</style>
<g id="oLwC7w_00000026165213594835423070000006986700816998958767_">
	<g>
		<path class="st0" d="M1.8,298.1c0.9-2.7,1.8-5.2,2.6-7.7c7.8-22.9,15.5-45.7,23.3-68.6c0.3-0.8,0.3-1.4-0.3-2.2
			c-9.1-15.2-15.2-31.6-18.1-48.9c-2-11.5-2.6-23.1-1.7-34.8C9.4,109.4,18,85,33.6,63.3c21.7-30.3,51-49.7,87.4-58
			c9.6-2.2,19.3-3.2,29.3-3.4c26.7-0.4,51.6,5.7,74.9,19c24.7,14.1,43.7,33.9,57,59c7.5,14.3,12.5,29.5,14.7,45.5
			c0.9,6,1.3,12.1,1.4,18.3c0.6,23.6-4.6,46.1-15.3,67.2c-14.1,27.6-35,48.5-62.3,63.1c-13.9,7.3-28.6,12.1-44.1,14.7
			c-11.6,1.9-23.4,2.4-35.1,1.4c-20.6-1.7-39.9-7.3-58-17c-0.5-0.3-1.3-0.4-1.8-0.1c-23.8,7.5-47.4,15.1-71.2,22.6
			C7.4,296.4,4.7,297.2,1.8,298.1z M38.3,262.4c0.6-0.1,1-0.3,1.4-0.4c14.8-4.7,29.5-9.3,44.3-14.1c0.8-0.3,1.4-0.4,2.2,0.1
			c17.9,11.5,37.6,17.9,58.8,19.3c12.5,0.8,24.9-0.3,37.2-3.3c23.4-5.9,43.6-17.4,59.8-35c27.7-30.2,38.5-65.8,30.5-106
			c-7.5-38.7-30-66.9-64.9-85.1C194.3,31,180,27,165,25.5c-10.7-1.1-21.5-0.8-32.1,0.9c-12.3,1.9-24,5.7-35.1,11.4
			c-19.7,9.8-35.6,23.9-47.8,42.3c-11.6,17.8-18.1,37.2-19.5,58.4c-0.6,10.3-0.1,20.6,1.9,30.8c3.3,17.2,10.2,33,20.4,47.1
			c0.5,0.8,0.6,1.4,0.3,2.2c-4.2,12.5-8.4,24.9-12.6,37.4C39.7,258,39.1,260.1,38.3,262.4z"/>
		<path class="st0" d="M192.8,214.3c-6.1-0.1-10.9-1.4-15.5-2.9c-10.2-3.2-20.4-6.6-29.9-11.6c-9.8-5.2-18.7-11.9-26.7-19.5
			c-9.1-8.7-16.9-18.4-24.1-28.6c-4.6-6.6-8.8-13.3-11.8-21c-3.8-10.2-4.5-20.6-0.8-30.9c2.2-6,5.9-11.1,10.6-15.5
			c2.4-2.3,5.6-3.2,8.8-3.7c2.2-0.4,4.3-0.5,6.5-0.8c2.8-0.3,5.1,0.8,6.5,3.3c1.5,2.8,2.8,5.7,4,8.7c3.1,7.3,6.1,14.6,9.2,21.8
			c0.9,2,0.8,3.8-0.1,5.9c-2.3,5-6,8.7-9.6,12.6c-1.9,2.2-2.3,4-0.8,6.4c10,16.6,23.1,29.9,40.6,38.5c2.9,1.4,6,2.8,9.1,4.1
			c2.9,1.3,4.6,0.9,6.6-1.5c3.8-4.6,7.7-9.3,11.4-14.1c1.7-2,3.2-2.9,5.7-2c3.6,1.3,7,2.8,10.5,4.3c6.6,3.2,13.3,6.4,19.9,9.6
			c2.3,1.1,3.6,2.7,3.4,5.4c-0.3,5.9-1,11.6-4.2,16.7c-2.8,4.5-7.3,7.4-11.9,10c-3.7,2-7.5,3.6-11.8,4
			C196.3,213.4,193.9,214.1,192.8,214.3z"/>
	</g>
</g>
</svg>
