<?xml version="1.0" encoding="utf-8"?>
<!-- Generator: Adobe Illustrator 27.0.0, SVG Export Plug-In . SVG Version: 6.00 Build 0)  -->
<svg version="1.1" id="Capa_1" xmlns="http://www.w3.org/2000/svg" xmlns:xlink="http://www.w3.org/1999/xlink" x="0px" y="0px"
	 viewBox="0 0 300 300" style="enable-background:new 0 0 300 300;" xml:space="preserve">
<style type="text/css">
	.st0{fill:#6C8436;}
</style>
<path class="st0" d="M258,137c12.6,9.4,19.9,21.7,22.2,37.1c3.7,24.3-13,50.7-36.6,57c-6.8,1.8-14,2.7-21.1,3
	c-11.2,0.5-22.5,0.1-34,0.1c0,10.5,0,20.6,0,31.1c1.4,0.1,2.8,0.2,4.2,0.2c10.8,0,21.6,0,32.5,0c5.7,0,9.1,3,9.1,7.7
	c-0.1,4.5-3.5,7.4-8.9,7.4c-50.2,0-100.3,0-150.5,0c-5.3,0-8.9-3-9-7.4c-0.1-4.6,3.4-7.7,9.1-7.7c12.1,0,24.2,0,36.6,0
	c0-10.4,0-20.5,0-31.3c-1.9,0-3.8,0-5.7,0c-13.2-0.2-26.5,0.8-39.6-0.8c-23.1-2.9-38.7-16.5-44.8-38.9c-6.1-22.5,1-41.5,19.1-56.3
	c0.4-0.4,0.8-0.8,0.7-0.6c-2.1-6.7-4.8-12.9-5.9-19.4c-3.2-20.4,8-40,26.9-48.2c2.8-1.2,4-2.6,4.5-5.7c5.8-37.1,47.7-56.7,80-37.2
	c2.3,1.4,3.9,1.6,6.3,0.1c33-19.7,74.6,0,80.6,38c0.2,1.4,1.2,3.3,2.4,3.9C264.5,83.4,272.8,108.4,258,137z M110.6,115.7
	c0.4-0.2,0.8-0.5,1.2-0.7c0-1.8,0-3.6,0-5.4c0-12.1-0.1-24.2,0.1-36.3c0-4.4,3.3-7.6,7.4-7.6c3.9,0,7.1,2.9,7.6,7
	c0.2,1.2,0.1,2.5,0.1,3.8c0,21.6,0,43.3,0,64.9c0,1.4,0,2.9,0,5.5c5.9-6,10.8-11,15.8-16c4.6-4.6,9-5.2,12.5-1.9
	c3.5,3.4,2.9,7.9-1.6,12.4c-8,8.1-16.2,16-24.1,24.2c-1.4,1.4-2.5,3.8-2.5,5.7c-0.2,12.6-0.2,25.3-0.2,37.9c0,3,0,6.1,0,9.5
	c12.4,0,24.2-0.1,35.9,0c7.7,0.1,15.2-1.2,21.8-5.3c12.4-7.8,19.4-19.2,19-34c-0.5-15.1-7.9-26.3-21.3-33.4
	c-6.2-3.3-7.2-8.3-2.4-13.7c16.1-18.2,8.1-44.7-15.2-51c-5.2-1.4-6.9-3.6-7-8.9c-0.3-20.8-16.9-37.9-37.2-38.4
	c-21-0.5-38.5,16-39.5,37.3C80.6,79.3,80,80,73,82c-23,6.7-30.6,32.8-14.8,50.7c4.9,5.6,4,10.3-2.6,13.8
	c-15.4,8.1-23.3,23.9-20.4,41.2c2.6,15.7,16.1,29.2,32.7,30.7c13.8,1.2,27.8,0.6,41.6,0.6c0.8,0,2.3-1.9,2.4-2.9
	c0.2-3.9-0.2-7.9,0.1-11.8c0.2-3.5-0.8-6-3.3-8.5c-8.4-8.1-16.6-16.4-24.8-24.7c-3.4-3.5-3.5-7.8-0.5-10.9c3.2-3.3,7.5-3.3,11.2,0.1
	c0.9,0.9,1.8,1.8,2.7,2.7c4.6,4.6,9.3,9.2,14.7,14.6c0-2.4,0-3.6,0-4.8c0-10.3-0.1-20.5,0.1-30.8c0-2.9-0.8-5-2.8-7
	c-8.4-8.3-16.8-16.5-25-25.1c-1.6-1.7-2.9-4.8-2.6-7c0.4-2.2,2.7-5.1,4.6-5.7c2.4-0.6,6.1,0.2,7.9,1.8
	C100,104.2,105.2,110.1,110.6,115.7z M202.8,219.1c8.1,0,15.4-0.1,22.6,0c18.6,0.2,34.6-11.8,39-29.3c4.3-17.2-3.8-34.7-20.3-43.4
	c-6.3-3.4-7.1-8.2-2.3-13.6c16-18.1,8.2-44.1-15.1-50.8c-6.3-1.8-7.3-3.2-7.7-9.7c-0.8-14.7-7.4-26.1-20.5-33.2
	c-12.3-6.7-24.6-6.1-37.1,0.6c5.6,7.8,9.6,15.8,10.7,24.9c0.4,2.9,1.7,4.1,4.3,5.4c15.5,7.3,24.6,19.5,26.8,36.7
	c1.4,10.8-1.3,20.9-6.9,30.1C223.4,157.2,226.4,193.7,202.8,219.1z M127.2,265.3c15.5,0,30.4,0,45.6,0c0-10.4,0-20.5,0-30.8
	c-15.3,0-30.4,0-45.6,0C127.2,244.9,127.2,254.9,127.2,265.3z"/>
</svg>
