<?xml version="1.0" encoding="utf-8"?>
<!-- Generator: Adobe Illustrator 27.0.0, SVG Export Plug-In . SVG Version: 6.00 Build 0)  -->
<svg version="1.1" id="Capa_1" xmlns="http://www.w3.org/2000/svg" xmlns:xlink="http://www.w3.org/1999/xlink" x="0px" y="0px"
	 viewBox="0 0 300 300" style="enable-background:new 0 0 300 300;" xml:space="preserve">
<style type="text/css">
	.st0{fill:#6C8436;}
</style>
<g>
	<g id="ARC3MP_00000010276605094374752600000006105713049424741819_">
		<g>
			<path class="st0" d="M15.7,129.2c2-4.6,6.5-5.5,10.4-7c18.4-7,36.8-14,55.2-21c15.1-5.8,30.3-11.5,45.4-17.2
				c5.5-2.1,11-4,16.4-6.3c4.5-1.9,8.6-2,13.2-0.2c21.5,8.4,43.2,16.6,64.8,24.8c17.6,6.7,35.2,13.4,52.9,20
				c1.8,0.7,3.6,1.4,5.4,2.1c2.4,0.9,3.6,2.9,4.9,4.9c0,1.1,0,2.3,0,3.4c-1,2.6-2.8,4.4-5.4,5.5c-1.9,0.8-3.8,1.6-5.7,2.4
				c-14.5,6.2-29,12.4-43.5,18.6c-13.5,5.8-27,11.5-40.6,17.3c-11.4,4.9-22.9,9.7-34.2,14.7c-3.4,1.5-6.4,1.5-9.8,0
				c-12.8-5.7-25.7-11.1-38.5-16.6c-16.3-7-32.5-13.9-48.8-20.9c-11.7-5-23.5-10.1-35.3-15c-3-1.3-5.5-2.9-6.8-6.1
				C15.7,131.5,15.7,130.4,15.7,129.2z M257.9,131.6c-1.8-0.8-3.1-1.4-4.5-1.9c-13.4-5.1-26.8-10.1-40.2-15.2
				c-20.5-7.8-41.1-15.6-61.6-23.4c-0.9-0.4-2.3-0.3-3.2,0c-5,1.8-9.9,3.7-14.8,5.6c-16.6,6.3-33.2,12.6-49.8,18.9
				c-12.5,4.7-25,9.5-37.4,14.2c-1.3,0.5-2.5,1-4.1,1.7c7.2,3.1,14,6,20.8,8.9c13.7,5.9,27.4,11.7,41.1,17.6
				c14.2,6.1,28.4,12.1,42.5,18.3c2.4,1.1,4.3,1.1,6.8,0c15.5-6.8,31.1-13.4,46.6-20c14-6,28.1-12,42.1-18
				C247.2,136.2,252.3,134,257.9,131.6z"/>
			<path class="st0" d="M15.7,160.1c2.9-4.5,5.4-6,8.9-5c2.2,0.7,4.4,1.7,6.6,2.6c10.2,4.4,20.3,8.8,30.5,13.1
				c12.8,5.5,25.6,10.9,38.4,16.4c16.2,6.9,32.4,13.9,48.6,20.8c0.7,0.3,1.9,0.3,2.6,0c19.1-8.1,38.2-16.4,57.3-24.6
				c19.4-8.3,38.9-16.6,58.3-24.9c2.3-1,4.6-2,6.9-3c4.3-1.8,7.7-0.5,9.9,3.5c0.2,0.3,0.4,0.6,0.6,0.8c0,1.3,0,2.6,0,3.9
				c-1.3,2.3-2.9,4.1-5.4,5.2c-6.2,2.5-12.4,5.2-18.5,7.9c-12.1,5.2-24.3,10.4-36.4,15.6c-11.9,5.1-23.9,10.2-35.9,15.3
				c-12,5.1-24,10.3-36,15.5c-1.4,0.6-2.6,0.6-4,0c-14.2-6.1-28.3-12.2-42.5-18.3c-12.7-5.4-25.3-10.9-38-16.3
				c-13.8-5.9-27.6-11.7-41.4-17.7c-3.9-1.7-8.4-2.6-10.4-7.2C15.7,162.7,15.7,161.4,15.7,160.1z"/>
		</g>
	</g>
	<g>
		<path class="st0" d="M95.5,137.8c0.5-0.4,1.1-0.7,1.6-0.9c-0.4,0.2-0.9,0.4-1.3,0.5c1.1-0.4,2.2-0.7,3.4-0.8
			c-0.5,0.1-1,0.1-1.4,0.2c2.3-0.3,4.6-0.2,6.9-0.5c1.5-0.2,3.1-0.4,4.5-0.9c1.9-0.7,3.4-1.5,4.9-2.9c1-0.9,1.6-2.5,1.6-3.8
			c0-1.3-0.6-2.9-1.6-3.8c-1-0.9-2.4-1.6-3.8-1.6c-1.5,0.1-2.7,0.6-3.8,1.6c-0.1,0.1-0.3,0.3-0.4,0.4c0.4-0.3,0.7-0.6,1.1-0.8
			c-0.6,0.4-1.2,0.8-1.8,1c0.4-0.2,0.9-0.4,1.3-0.5c-1,0.4-2.1,0.6-3.2,0.8c0.5-0.1,1-0.1,1.4-0.2c-5,0.6-10.4,0-14.7,3
			c-1.2,0.8-2.1,1.8-2.5,3.2c-0.4,1.3-0.2,3,0.5,4.1c0.7,1.1,1.8,2.2,3.2,2.5C92.7,138.6,94.3,138.6,95.5,137.8L95.5,137.8z"/>
	</g>
	<g>
		<path class="st0" d="M177.5,90.9c-2.2,0.2-4.4,0.5-6.6,1.2c-2.1,0.6-4.2,1.5-6.2,2.5c-3.3,1.6-6.4,3.5-9.6,5.2
			c-1.8,1-3.7,2-5.6,2.8c0.4-0.2,0.9-0.4,1.3-0.5c-2.3,1-4.6,1.7-7.1,2c0.5-0.1,1-0.1,1.4-0.2c-0.1,0-0.1,0-0.2,0
			c-0.7,0-1.4,0.1-2.1,0.5c-0.7,0.2-1.2,0.6-1.7,1.1c-0.9,0.9-1.6,2.5-1.6,3.8c0.1,1.4,0.5,2.8,1.6,3.8c1,0.9,2.4,1.8,3.8,1.6
			c2.2-0.3,4.2-0.7,6.3-1.4c2-0.7,4-1.6,5.9-2.5c3.2-1.6,6.2-3.4,9.3-5.1c1.7-0.9,3.5-1.8,5.3-2.6c-0.4,0.2-0.9,0.4-1.3,0.5
			c2.2-0.9,4.5-1.6,6.9-2c-0.5,0.1-1,0.1-1.4,0.2c0.5-0.1,0.9-0.1,1.4-0.1c1.4-0.1,2.7-0.5,3.8-1.6c0.9-0.9,1.6-2.5,1.6-3.8
			c-0.1-1.4-0.5-2.8-1.6-3.8C180.3,91.6,178.9,90.8,177.5,90.9L177.5,90.9z"/>
	</g>
	<g>
		<path class="st0" d="M115.7,163.9c1.4-0.9,2.9-1.6,4.5-2.3c-0.4,0.2-0.9,0.4-1.3,0.5c3.6-1.5,7.5-2.4,11.4-2.9
			c-0.5,0.1-1,0.1-1.4,0.2c8.3-1.1,16.7-0.6,25-1.4c0.7,0,1.4-0.1,2.1-0.5c0.7-0.2,1.2-0.6,1.7-1.1c0.9-0.9,1.6-2.5,1.6-3.8
			c-0.1-1.4-0.5-2.8-1.6-3.8c-1-0.9-2.4-1.7-3.8-1.6c-11.5,1.2-23.3-0.1-34.5,3.4c-3.2,1-6.3,2.3-9.1,4c-1.2,0.7-2.1,1.9-2.5,3.2
			c-0.4,1.3-0.2,3,0.5,4.1c0.7,1.1,1.8,2.2,3.2,2.5C112.9,164.8,114.4,164.7,115.7,163.9L115.7,163.9z"/>
	</g>
	<g>
		<path class="st0" d="M164.5,134.2c5.4-3.1,10.8-6.2,16.2-9.3c1.2-0.7,2.1-1.9,2.5-3.2c0.4-1.3,0.2-3-0.5-4.1
			c-0.7-1.1-1.8-2.2-3.2-2.5c-1.4-0.3-2.9-0.2-4.1,0.5c-5.4,3.1-10.8,6.2-16.2,9.3c-1.2,0.7-2.1,1.9-2.5,3.2c-0.4,1.3-0.2,3,0.5,4.1
			c0.7,1.1,1.8,2.2,3.2,2.5C161.8,135.1,163.3,134.9,164.5,134.2L164.5,134.2z"/>
	</g>
	<g>
		<path class="st0" d="M234.8,112.2c-10.5,4.3-20.8,8.9-31.1,13.7c-2.8,1.3-5.6,2.6-8.4,4c-1.2,0.6-2.1,2-2.5,3.2
			c-0.4,1.3-0.2,3,0.5,4.1c0.7,1.1,1.8,2.2,3.2,2.5c0.5,0.1,1,0.1,1.4,0.2c1,0,1.9-0.2,2.7-0.7c8.7-4.2,17.5-8.2,26.4-12.1
			c2.5-1.1,5-2.2,7.5-3.2c-0.4,0.2-0.9,0.4-1.3,0.5c1.4-0.6,2.8-1.2,4.3-1.8c0.7-0.2,1.3-0.5,1.8-1c0.6-0.4,1-0.9,1.4-1.5
			c0.7-1.1,1-2.8,0.5-4.1c-0.4-1.3-1.2-2.5-2.5-3.2C237.7,112.1,236.1,111.7,234.8,112.2L234.8,112.2z"/>
	</g>
	<g>
		<path class="st0" d="M51.7,143.8c1.7-0.8,3.5-1.6,5.3-2.3c-0.4,0.2-0.9,0.4-1.3,0.5c1.6-0.7,3.3-1.4,5-2c0.8-0.3,1.7-0.6,2.5-0.9
			c0.8-0.3,1.6-0.6,2.4-0.7c-0.5,0.1-1,0.1-1.4,0.2c0.3,0,0.6,0,0.8,0c-0.5-0.1-1-0.1-1.4-0.2c0.4,0.1,0.8,0.2,1.1,0.3
			c-0.4-0.2-0.9-0.4-1.3-0.5c1.1,0.5,2.1,1,3.2,1.5c1.4,0.5,3.2,0.6,4.7,0.1c1.3-0.4,2.5-1.3,3.2-2.5c0.7-1.1,1-2.8,0.5-4.1
			c-0.4-1.3-1.2-2.5-2.5-3.2c-1.3-0.7-2.7-1-4.1-0.5c-0.1,0-0.3,0.1-0.4,0.1c0.5-0.1,1-0.1,1.4-0.2c-0.2,0-0.4,0-0.7,0
			c0.5,0.1,1,0.1,1.4,0.2c-0.3-0.1-0.6-0.2-0.9-0.3c0.4,0.2,0.9,0.4,1.3,0.5c-2.1-0.9-4-2.1-6.4-1.9c-2.2,0.2-4.3,1.1-6.4,1.9
			c-3.9,1.5-7.8,3.1-11.5,4.9c-1.2,0.5-2.1,2-2.5,3.2c-0.4,1.3-0.2,3,0.5,4.1c0.7,1.1,1.8,2.2,3.2,2.5c0.5,0.1,1,0.1,1.4,0.2
			C49.9,144.5,50.8,144.3,51.7,143.8L51.7,143.8z"/>
	</g>
	<g>
		<path class="st0" d="M128.7,117.8c0.3-0.1,0.5-0.3,0.8-0.4c0.6-0.3,1.1-0.8,1.5-1.4c0.5-0.5,0.8-1.1,1-1.8
			c0.2-0.7,0.3-1.4,0.1-2.1c0-0.7-0.2-1.4-0.6-2c-0.3-0.4-0.6-0.7-0.8-1.1c-0.7-0.7-1.5-1.1-2.4-1.4c-0.5-0.1-1-0.1-1.4-0.2
			c-1,0-1.9,0.2-2.7,0.7c-0.3,0.1-0.5,0.3-0.8,0.4c-0.6,0.3-1.1,0.8-1.5,1.4c-0.5,0.5-0.8,1.1-1,1.8c-0.2,0.7-0.3,1.4-0.1,2.1
			c0,0.7,0.2,1.4,0.6,2c0.3,0.4,0.6,0.7,0.8,1.1c0.7,0.7,1.5,1.1,2.4,1.4c0.5,0.1,1,0.1,1.4,0.2C127,118.6,127.9,118.3,128.7,117.8
			L128.7,117.8z"/>
	</g>
	<g>
		<path class="st0" d="M175.8,158c0.8-0.1,1.5-0.3,2.3-0.4c0.7-0.2,1.3-0.5,1.8-1c0.6-0.4,1-0.9,1.4-1.5c0.4-0.6,0.6-1.3,0.6-2
			c0.2-0.7,0.1-1.4-0.1-2.1c-0.2-0.4-0.4-0.9-0.5-1.3c-0.5-0.8-1.1-1.4-1.9-1.9c-0.4-0.2-0.9-0.4-1.3-0.5c-1-0.3-1.9-0.3-2.9,0
			c-0.8,0.1-1.5,0.3-2.3,0.4c-0.7,0.2-1.3,0.5-1.8,1c-0.6,0.4-1,0.9-1.4,1.5c-0.4,0.6-0.6,1.3-0.6,2c-0.2,0.7-0.1,1.4,0.1,2.1
			c0.2,0.4,0.4,0.9,0.5,1.3c0.5,0.8,1.1,1.4,1.9,1.9c0.4,0.2,0.9,0.4,1.3,0.5C173.9,158.3,174.9,158.3,175.8,158L175.8,158z"/>
	</g>
</g>
</svg>
