<?xml version="1.0" encoding="utf-8"?>
<!-- Generator: Adobe Illustrator 27.0.0, SVG Export Plug-In . SVG Version: 6.00 Build 0)  -->
<svg version="1.1" id="Capa_1" xmlns="http://www.w3.org/2000/svg" xmlns:xlink="http://www.w3.org/1999/xlink" x="0px" y="0px"
	 viewBox="0 0 300 300" style="enable-background:new 0 0 300 300;" xml:space="preserve">
<style type="text/css">
	.st0{fill:#6C8436;}
</style>
<g id="_x32_6W2gB.tif">
	<g>
		<path class="st0" d="M259,103.7c-0.5,2-0.8,4.1-1.4,6.1c-5,18.3-16.6,30.3-35,34.8c-18.5,4.4-34.4-1.1-47.2-15.2
			c-0.4-0.5-0.8-0.9-1.5-1.7c-4.1,2.7-8,5.6-12.2,8.1c-1.8,1.1-4.2,1.9-6.3,1.8c-3.3-0.2-5.6-2.3-6.5-5.6c-0.9-3.4,0.1-6.3,2.9-8.4
			c3.8-2.8,7.8-5.3,11.8-7.9c0.9-0.6,1.9-1.2,2.9-1.9c-2.9-8.9-3.3-17.8-1.1-26.7c5.4-22.2,25.8-36.9,49.5-35.8
			c21.4,1,40.5,18.6,43.5,40.3c0.1,0.8,0.3,1.5,0.5,2.3C259,97.1,259,100.4,259,103.7z M211.5,130.1c17.4,0,31.6-14.1,31.7-31.5
			c0.1-17.5-14.2-31.7-31.7-31.7c-17.4,0-31.6,14.1-31.7,31.5C179.7,115.9,194,130.1,211.5,130.1z"/>
		<path class="st0" d="M100.6,248.8c-20.8,0-29.9,0-50.7,0c-3.8,0-6.7-1.3-8.3-4.8c-2.2-4.8,1.2-10.4,6.6-11c0.6-0.1,1.2,0,1.8,0
			c41.4,0,155.5,0,196.9,0c5.5,0,9.1,3.2,9,8c0,4.2-3.2,7.5-7.4,7.7c-2.9,0.1-5.8,0.1-8.7,0.1C221.7,248.8,119,248.8,100.6,248.8z"
			/>
		<path class="st0" d="M141.7,151.6c-0.8,1.8-1.5,3.7-2.5,5.3c-4.1,5.9-8.3,11.7-12.4,17.6c-2.9,4.2-7.4,5.6-11.3,3.1
			c-3.9-2.4-5-7.3-2.1-11.5c4.4-6.6,9.1-13,13.8-19.4c2.2-3,5.7-3.7,8.9-2.5C139.3,145.3,141.2,148.1,141.7,151.6z"/>
		<path class="st0" d="M42.9,152.6c0.1-5.9,6.2-9.7,11.4-6.9c7.8,4.3,14.7,9.8,21,16.1c3,3.1,2.8,8-0.1,10.9c-3,3-7.5,3.1-11,0.3
			c-5.9-4.7-11.9-9.2-17.9-13.7C44.1,157.6,42.8,155.5,42.9,152.6z"/>
		<path class="st0" d="M105.1,214.3c0,4.1-2.7,7.4-6.4,8.1c-3.6,0.7-7.4-1.5-8.8-5.1c-2.9-7.3-5.7-14.6-8.6-21.9
			c-1.5-3.8,0.1-8,3.6-9.9c3.4-1.8,8-1.1,10,2.3c4.8,8,8.1,16.6,10.2,25.7C105.1,213.8,105.1,214.2,105.1,214.3z"/>
	</g>
</g>
</svg>
