<?xml version="1.0" encoding="utf-8"?>
<!-- Generator: Adobe Illustrator 27.0.0, SVG Export Plug-In . SVG Version: 6.00 Build 0)  -->
<svg version="1.1" id="Capa_1" xmlns="http://www.w3.org/2000/svg" xmlns:xlink="http://www.w3.org/1999/xlink" x="0px" y="0px"
	 viewBox="0 0 300 300" style="enable-background:new 0 0 300 300;" xml:space="preserve">
<style type="text/css">
	.st0{fill:#6C8436;}
</style>
<g id="_x35_1NlqC_00000181794388443203413450000011884330599658830518_">
	<g>
		<path class="st0" d="M215.1,249.8c-43.4,0-86.8,0-130.2,0c-0.1-0.1-0.2-0.2-0.4-0.2c-8.7-1.2-15-8.5-15-17.2c0-12.8,0-25.6,0-38.4
			c0-28.8,0-57.7,0-86.5c0-13.5,0-27,0-40.5c0-8,5.8-14.9,13.7-16.5c0.6-0.1,1.1-0.3,1.7-0.4c33.9,0,67.7,0,101.6,0
			c2.1,0.7,3.5,2.3,5,3.8c12.4,12.4,24.7,24.7,37.1,37.1c0.9,0.9,1.7,2,1.8,3.4c0.1,1,0.1,2.1,0.1,3.1c0,45,0,90,0,135
			c0,7.1-3.4,12.4-9.8,15.6C218.9,249,217,249.3,215.1,249.8z M179.3,61.9c-0.5,0-1,0-1.4,0c-11.5,0-23,0-34.5,0
			c-18.6,0-37.2,0-55.9,0c-4.1,0-6.3,2.2-6.3,6.3c0,54.5,0,109.1,0,163.6c0,4.2,2.1,6.3,6.4,6.3c24.8,0,49.7,0,74.5,0
			c16.7,0,33.5,0,50.2,0c4.3,0,6.4-2.1,6.4-6.4c0-43,0-85.9,0-128.9c0-0.5,0-0.9,0-1.4c-0.4,0-0.7-0.1-1-0.1c-9.4,0-18.7,0-28.1,0
			c-1.7,0-3.5,0-5.2-0.1c-2.9-0.3-5.1-2.7-5.1-5.6c0-6.5,0-13,0-19.5C179.3,71.4,179.3,66.7,179.3,61.9z M191.1,70.6
			c0,6.3,0,12.6,0,18.9c6.4,0,12.6,0,18.7,0C203.7,83.3,197.4,77,191.1,70.6z"/>
		<path class="st0" d="M150.1,211.8c-14.1,0-28.1,0-42.2,0c-3.3,0-5.7-1.9-6.2-4.9c-0.6-3.3,1.8-6.5,5.2-6.7
			c2.4-0.2,4.8-0.1,7.2-0.1c12.7,0,25.5,0,38.2,0c12.3,0,24.5,0,36.8,0c1.2,0,2.4-0.1,3.6,0c3.4,0.2,5.8,2.8,5.7,6.1
			c-0.1,3.2-2.7,5.5-6.1,5.5C178.3,211.8,164.2,211.8,150.1,211.8z"/>
		<path class="st0" d="M149.9,176.5c-14,0-27.9,0-41.9,0c-4.1,0-7-3.2-6.3-7c0.5-2.8,3-4.8,6-4.8c12.1,0,24.2,0,36.4,0
			c16.1,0,32.2,0,48.3,0c2.5,0,4.4,1.2,5.4,3.4c1,2.2,0.7,4.3-0.9,6.2c-1.2,1.5-2.8,2.1-4.7,2.1c-9.4,0-18.7,0-28.1,0
			C159.4,176.5,154.7,176.5,149.9,176.5C149.9,176.5,149.9,176.5,149.9,176.5z"/>
		<path class="st0" d="M150.1,129.6c14.1,0,28.3,0,42.4,0c2.7,0,5.1,1.8,5.7,4.3c0.7,2.7-0.4,5.4-2.8,6.6c-0.9,0.5-2,0.7-3,0.7
			c-16,0-32,0-48,0c-11.9,0-23.9,0-35.8,0c-1.2,0-2.4-0.1-3.5-0.5c-2.6-1-3.9-3.8-3.3-6.6c0.5-2.6,2.9-4.5,5.6-4.6
			c6.7,0,13.4,0,20.1,0C135,129.6,142.5,129.6,150.1,129.6z"/>
	</g>
</g>
</svg>
