<?xml version="1.0" encoding="utf-8"?>
<!-- Generator: Adobe Illustrator 27.0.0, SVG Export Plug-In . SVG Version: 6.00 Build 0)  -->
<svg version="1.1" id="Capa_1" xmlns="http://www.w3.org/2000/svg" xmlns:xlink="http://www.w3.org/1999/xlink" x="0px" y="0px"
	 viewBox="0 0 300 300" style="enable-background:new 0 0 300 300;" xml:space="preserve">
<style type="text/css">
	.st0{fill:#6C8436;}
</style>
<g id="_x36_jYXRi_00000168820617846774287460000006703530173549144195_">
	<g>
		<path class="st0" d="M87.4,141.8c1.1-0.5,2-0.8,2.9-1.2c29.7-13.3,59.3-26.7,89.1-39.9c2.2-1,5.5-1.3,7.6-0.3
			c19.5,8.5,38.9,17.4,58.4,26c3.6,1.6,4.3,3.7,4.3,7.2c-0.1,21.7-0.1,79.1-0.1,100.8c0,2.1,0,4.2,0,6.3c5.4,0,10,0,15.1,0
			c0-23.3,0-81.7,0-105.3c5.5,2.4,10.3,4.4,15.2,6.6c2.2-4.8,4.1-9,6.2-13.6c-33.7-15.1-67-30-100.3-44.7c-1.6-0.7-4.2-0.1-6,0.7
			c-19.7,8.6-39.3,17.4-58.9,26.2c-13.1,5.9-26.2,11.8-39.6,17.8C83.4,133.1,85.3,137.3,87.4,141.8z"/>
		<path class="st0" d="M146.8,158.5c0,4.6,0,8.9,0,14c-50.7,0-41.9,0-93.2,0c0,11.4,0,57.5,0,68.4c-5.3,0-9.9,0-15.2,0
			c0-10.8,0-57,0-68c-6.9,0-13.1,0-19.8,0c0-5,0-9.4,0-14.4C80.9,158.5,83.8,158.5,146.8,158.5z"/>
	</g>
</g>
</svg>
