<?xml version="1.0" encoding="utf-8"?>
<!-- Generator: Adobe Illustrator 27.0.0, SVG Export Plug-In . SVG Version: 6.00 Build 0)  -->
<svg version="1.1" id="Capa_1" xmlns="http://www.w3.org/2000/svg" xmlns:xlink="http://www.w3.org/1999/xlink" x="0px" y="0px"
	 viewBox="0 0 300 300" style="enable-background:new 0 0 300 300;" xml:space="preserve">
<style type="text/css">
	.st0{fill:#67872C;}
</style>
<g id="qjSQi1.tif">
	<g>
		<path class="st0" d="M149.6,243.2c-49.9,1.9-93-43.3-93.1-93c0-50.2,43.1-93.6,94.1-93.4c49.4,0.2,93,43,92.8,94.2
			C243.2,200.6,200,245,149.6,243.2z M71.1,160.6c1.1,14,6.8,25.5,14.9,35.7c12.6,15.9,27.5,28.6,48.4,32.2c7.6,1.3,7.6,1.2,8.8-6.2
			c0.6-4,2.9-6.3,7-6.1c3.9,0.1,5.9,2.4,6.5,6.2c1.1,7.1,1.1,7.1,8.3,6c1.8-0.3,3.6-0.5,5.3-1.1c24.1-7.5,41-23.5,52.9-45.2
			c3.2-5.9,4.9-12.2,5.6-18.9c0.4-4.1,0-6.9-5.5-6.6c-5.4,0.3-8-3.2-7.1-8.2c0.8-4.7,4.5-5.6,8.2-5.4c4.1,0.2,4.6-1.5,4.2-5
			c-1.4-12.7-6.7-23.8-14.4-33.8c-12.4-15.9-27.4-28.3-47.9-32.2c-8.1-1.5-8.2-1.3-9.8,6.5c-0.8,3.9-3.4,5-6.8,5
			c-3.3,0-5.6-1.3-6.4-4.9c-1.6-7.8-1.6-7.8-9.7-6.2c-1.1,0.2-2.3,0.5-3.4,0.8c-29.6,7-55.6,35.6-58.4,64c-0.4,3.9-0.4,6.2,4.7,5.9
			c4-0.3,7,1.7,7.3,6.4c0.3,4.9-2,7.1-7.7,7.3C72.9,156.8,70.2,156.9,71.1,160.6z"/>
		<path class="st0" d="M150,164c-2.6-0.1-5-0.9-6.3-3.2c-2.6-4.9-7-7.9-11.2-11.1c-7-5.3-14-10.6-21-15.9c-0.5-0.4-1.1-0.8-1.6-1.2
			c-3.1-2.4-6.5-4.7-3.8-9.3c1.9-3.1,5.1-2.8,9.9,0.8c8.7,6.6,17.4,13.2,26.2,19.7c8,6,6,6.7,13.6-1.3
			c11.2-11.8,22.4-23.5,33.6-35.2c1.1-1.2,2.3-2.4,3.7-3.3c2.2-1.6,4.4-1.4,6.2,0.6c1.6,1.8,2.6,3.9,0.7,6.2
			c-1.1,1.4-2.3,2.9-3.5,4.2c-10.4,10.9-20.7,21.9-31.1,32.8c-3.3,3.5-6.6,6.9-8.3,11.6C156,162.5,153.4,164,150,164z"/>
	</g>
</g>
</svg>
